<?xml version="1.0" encoding="UTF-8" standalone="no"?>
<!DOCTYPE svg PUBLIC "-//W3C//DTD SVG 1.1//EN"
 "http://www.w3.org/Graphics/SVG/1.1/DTD/svg11.dtd">
<!-- Generated by graphviz version 2.46.0 (20210119.1425)
 -->
<!-- Title: dependencies Pages: 1 -->
<svg width="1347pt" height="284pt"
 viewBox="0.00 0.00 1347.00 284.00" xmlns="http://www.w3.org/2000/svg" xmlns:xlink="http://www.w3.org/1999/xlink">
<g id="graph0" class="graph" transform="scale(1 1) rotate(0) translate(4 280)">
<title>dependencies</title>
<polygon fill="white" stroke="transparent" points="-4,4 -4,-280 1343,-280 1343,4 -4,4"/>
<text text-anchor="start" x="648.51" y="-42.4" font-family="sans-serif" font-weight="bold" font-size="14.00">Legend</text>
<polygon fill="#ffffb3" stroke="transparent" points="435.5,-10 435.5,-30 455.5,-30 455.5,-10 435.5,-10"/>
<text text-anchor="start" x="459.13" y="-15.4" font-family="sans-serif" font-size="14.00"> &#160;Declarations</text>
<polygon fill="#8dd3c7" stroke="transparent" points="548.5,-10 548.5,-30 568.5,-30 568.5,-10 548.5,-10"/>
<text text-anchor="start" x="572.23" y="-15.4" font-family="sans-serif" font-size="14.00"> &#160;Module</text>
<polygon fill="#80b1d3" stroke="transparent" points="634.5,-10 634.5,-30 654.5,-30 654.5,-10 634.5,-10"/>
<text text-anchor="start" x="658.28" y="-15.4" font-family="sans-serif" font-size="14.00"> &#160;Bootstrap</text>
<polygon fill="#fdb462" stroke="transparent" points="731.5,-10 731.5,-30 751.5,-30 751.5,-10 731.5,-10"/>
<text text-anchor="start" x="755.17" y="-15.4" font-family="sans-serif" font-size="14.00"> &#160;Providers</text>
<polygon fill="#fb8072" stroke="transparent" points="827.5,-10 827.5,-30 847.5,-30 847.5,-10 827.5,-10"/>
<text text-anchor="start" x="851.23" y="-15.4" font-family="sans-serif" font-size="14.00"> &#160;Exports</text>
<g id="clust1" class="cluster">
<title>cluster_AppModule</title>
<polygon fill="none" stroke="black" stroke-dasharray="1,5" points="8,-70 8,-268 1331,-268 1331,-70 8,-70"/>
</g>
<g id="clust12" class="cluster">
<title>cluster_AppModule_imports</title>
<polygon fill="none" stroke="black" points="1179,-78 1179,-130 1323,-130 1323,-78 1179,-78"/>
</g>
<g id="clust2" class="cluster">
<title>cluster_AppModule_declarations</title>
<polygon fill="none" stroke="black" points="16,-78 16,-130 1171,-130 1171,-78 16,-78"/>
</g>
<g id="clust14" class="cluster">
<title>cluster_AppModule_bootstrap</title>
<polygon fill="none" stroke="black" points="627,-208 627,-260 751,-260 751,-208 627,-208"/>
</g>
<!-- AppComponent -->
<g id="node1" class="node">
<title>AppComponent</title>
<polygon fill="#ffffb3" stroke="black" points="1162.94,-122 1057.06,-122 1057.06,-86 1162.94,-86 1162.94,-122"/>
<text text-anchor="middle" x="1110" y="-99.8" font-family="Times,serif" font-size="14.00">AppComponent</text>
</g>
<!-- AppModule -->
<g id="node10" class="node">
<title>AppModule</title>
<polygon fill="#8dd3c7" stroke="black" points="730.66,-187 727.66,-191 706.66,-191 703.66,-187 647.34,-187 647.34,-151 730.66,-151 730.66,-187"/>
<text text-anchor="middle" x="689" y="-164.8" font-family="Times,serif" font-size="14.00">AppModule</text>
</g>
<!-- AppComponent&#45;&gt;AppModule -->
<g id="edge1" class="edge">
<title>AppComponent&#45;&gt;AppModule</title>
<path fill="none" stroke="black" d="M1110,-122.13C1110,-142.57 1110,-173 1110,-173 1110,-173 740.91,-173 740.91,-173"/>
<polygon fill="black" stroke="black" points="740.91,-169.5 730.91,-173 740.91,-176.5 740.91,-169.5"/>
</g>
<!-- DetalleComponent -->
<g id="node2" class="node">
<title>DetalleComponent</title>
<polygon fill="#ffffb3" stroke="black" points="1038.75,-122 917.25,-122 917.25,-86 1038.75,-86 1038.75,-122"/>
<text text-anchor="middle" x="978" y="-99.8" font-family="Times,serif" font-size="14.00">DetalleComponent</text>
</g>
<!-- DetalleComponent&#45;&gt;AppModule -->
<g id="edge2" class="edge">
<title>DetalleComponent&#45;&gt;AppModule</title>
<path fill="none" stroke="black" d="M978,-122.27C978,-140.56 978,-166 978,-166 978,-166 740.71,-166 740.71,-166"/>
<polygon fill="black" stroke="black" points="740.71,-162.5 730.71,-166 740.71,-169.5 740.71,-162.5"/>
</g>
<!-- FilterPipe -->
<g id="node3" class="node">
<title>FilterPipe</title>
<polygon fill="#ffffb3" stroke="black" points="899.72,-122 828.28,-122 828.28,-86 899.72,-86 899.72,-122"/>
<text text-anchor="middle" x="864" y="-99.8" font-family="Times,serif" font-size="14.00">FilterPipe</text>
</g>
<!-- FilterPipe&#45;&gt;AppModule -->
<g id="edge3" class="edge">
<title>FilterPipe&#45;&gt;AppModule</title>
<path fill="none" stroke="black" d="M864,-122.01C864,-138.05 864,-159 864,-159 864,-159 740.92,-159 740.92,-159"/>
<polygon fill="black" stroke="black" points="740.92,-155.5 730.92,-159 740.92,-162.5 740.92,-155.5"/>
</g>
<!-- IndexComponent -->
<g id="node4" class="node">
<title>IndexComponent</title>
<polygon fill="#ffffb3" stroke="black" points="810.71,-122 697.29,-122 697.29,-86 810.71,-86 810.71,-122"/>
<text text-anchor="middle" x="754" y="-99.8" font-family="Times,serif" font-size="14.00">IndexComponent</text>
</g>
<!-- IndexComponent&#45;&gt;AppModule -->
<g id="edge4" class="edge">
<title>IndexComponent&#45;&gt;AppModule</title>
<path fill="none" stroke="black" d="M714.11,-122.11C714.11,-122.11 714.11,-140.99 714.11,-140.99"/>
<polygon fill="black" stroke="black" points="710.61,-140.99 714.11,-150.99 717.61,-140.99 710.61,-140.99"/>
</g>
<!-- ListaComponent -->
<g id="node5" class="node">
<title>ListaComponent</title>
<polygon fill="#ffffb3" stroke="black" points="679.83,-122 570.17,-122 570.17,-86 679.83,-86 679.83,-122"/>
<text text-anchor="middle" x="625" y="-99.8" font-family="Times,serif" font-size="14.00">ListaComponent</text>
</g>
<!-- ListaComponent&#45;&gt;AppModule -->
<g id="edge5" class="edge">
<title>ListaComponent&#45;&gt;AppModule</title>
<path fill="none" stroke="black" d="M663.42,-122.11C663.42,-122.11 663.42,-140.99 663.42,-140.99"/>
<polygon fill="black" stroke="black" points="659.92,-140.99 663.42,-150.99 666.92,-140.99 659.92,-140.99"/>
</g>
<!-- LoginComponent -->
<g id="node6" class="node">
<title>LoginComponent</title>
<polygon fill="#ffffb3" stroke="black" points="552.28,-122 437.72,-122 437.72,-86 552.28,-86 552.28,-122"/>
<text text-anchor="middle" x="495" y="-99.8" font-family="Times,serif" font-size="14.00">LoginComponent</text>
</g>
<!-- LoginComponent&#45;&gt;AppModule -->
<g id="edge6" class="edge">
<title>LoginComponent&#45;&gt;AppModule</title>
<path fill="none" stroke="black" d="M495,-122.01C495,-138.05 495,-159 495,-159 495,-159 636.9,-159 636.9,-159"/>
<polygon fill="black" stroke="black" points="636.9,-162.5 646.9,-159 636.9,-155.5 636.9,-162.5"/>
</g>
<!-- MenuComponent -->
<g id="node7" class="node">
<title>MenuComponent</title>
<polygon fill="#ffffb3" stroke="black" points="419.99,-122 306.01,-122 306.01,-86 419.99,-86 419.99,-122"/>
<text text-anchor="middle" x="363" y="-99.8" font-family="Times,serif" font-size="14.00">MenuComponent</text>
</g>
<!-- MenuComponent&#45;&gt;AppModule -->
<g id="edge7" class="edge">
<title>MenuComponent&#45;&gt;AppModule</title>
<path fill="none" stroke="black" d="M363,-122.27C363,-140.56 363,-166 363,-166 363,-166 637.05,-166 637.05,-166"/>
<polygon fill="black" stroke="black" points="637.05,-169.5 647.05,-166 637.05,-162.5 637.05,-169.5"/>
</g>
<!-- NuevaComponent -->
<g id="node8" class="node">
<title>NuevaComponent</title>
<polygon fill="#ffffb3" stroke="black" points="287.87,-122 170.13,-122 170.13,-86 287.87,-86 287.87,-122"/>
<text text-anchor="middle" x="229" y="-99.8" font-family="Times,serif" font-size="14.00">NuevaComponent</text>
</g>
<!-- NuevaComponent&#45;&gt;AppModule -->
<g id="edge8" class="edge">
<title>NuevaComponent&#45;&gt;AppModule</title>
<path fill="none" stroke="black" d="M229,-122.13C229,-142.57 229,-173 229,-173 229,-173 636.96,-173 636.96,-173"/>
<polygon fill="black" stroke="black" points="636.96,-176.5 646.96,-173 636.96,-169.5 636.96,-176.5"/>
</g>
<!-- RegistroComponent -->
<g id="node9" class="node">
<title>RegistroComponent</title>
<polygon fill="#ffffb3" stroke="black" points="152.27,-122 23.73,-122 23.73,-86 152.27,-86 152.27,-122"/>
<text text-anchor="middle" x="88" y="-99.8" font-family="Times,serif" font-size="14.00">RegistroComponent</text>
</g>
<!-- RegistroComponent&#45;&gt;AppModule -->
<g id="edge9" class="edge">
<title>RegistroComponent&#45;&gt;AppModule</title>
<path fill="none" stroke="black" d="M88,-122.01C88,-144.49 88,-180 88,-180 88,-180 637.22,-180 637.22,-180"/>
<polygon fill="black" stroke="black" points="637.22,-183.5 647.22,-180 637.22,-176.5 637.22,-183.5"/>
</g>
<!-- AppComponent  -->
<g id="node12" class="node">
<title>AppComponent </title>
<polygon fill="#80b1d3" stroke="black" points="743.44,-252 634.56,-252 634.56,-216 743.44,-216 743.44,-252"/>
<text text-anchor="middle" x="689" y="-229.8" font-family="Times,serif" font-size="14.00">AppComponent </text>
</g>
<!-- AppModule&#45;&gt;AppComponent  -->
<g id="edge11" class="edge">
<title>AppModule&#45;&gt;AppComponent </title>
<path fill="none" stroke="black" stroke-dasharray="1,5" d="M689,-187.11C689,-187.11 689,-205.99 689,-205.99"/>
<polygon fill="black" stroke="black" points="685.5,-205.99 689,-215.99 692.5,-205.99 685.5,-205.99"/>
</g>
<!-- AppRoutingModule -->
<g id="node11" class="node">
<title>AppRoutingModule</title>
<polygon fill="#8dd3c7" stroke="black" points="1315.27,-122 1312.27,-126 1291.27,-126 1288.27,-122 1186.73,-122 1186.73,-86 1315.27,-86 1315.27,-122"/>
<text text-anchor="middle" x="1251" y="-99.8" font-family="Times,serif" font-size="14.00">AppRoutingModule</text>
</g>
<!-- AppRoutingModule&#45;&gt;AppModule -->
<g id="edge10" class="edge">
<title>AppRoutingModule&#45;&gt;AppModule</title>
<path fill="none" stroke="black" d="M1251,-122.01C1251,-144.49 1251,-180 1251,-180 1251,-180 740.78,-180 740.78,-180"/>
<polygon fill="black" stroke="black" points="740.78,-176.5 730.78,-180 740.78,-183.5 740.78,-176.5"/>
</g>
</g>
</svg>
