<?xml version="1.0" encoding="UTF-8" standalone="no"?>
<!DOCTYPE svg PUBLIC "-//W3C//DTD SVG 1.1//EN"
 "http://www.w3.org/Graphics/SVG/1.1/DTD/svg11.dtd">
<!-- Generated by graphviz version 2.46.0 (20210119.1425)
 -->
<!-- Title: dependencies Pages: 1 -->
<svg width="1347pt" height="284pt"
 viewBox="0.00 0.00 1347.00 284.00" xmlns="http://www.w3.org/2000/svg" xmlns:xlink="http://www.w3.org/1999/xlink">
<g id="graph0" class="graph" transform="scale(1 1) rotate(0) translate(4 280)">
<title>dependencies</title>
<polygon fill="white" stroke="transparent" points="-4,4 -4,-280 1343,-280 1343,4 -4,4"/>
<text text-anchor="start" x="648.51" y="-42.4" font-family="sans-serif" font-weight="bold" font-size="14.00">Legend</text>
<polygon fill="#ffffb3" stroke="transparent" points="435.5,-10 435.5,-30 455.5,-30 455.5,-10 435.5,-10"/>
<text text-anchor="start" x="459.13" y="-15.4" font-family="sans-serif" font-size="14.00"> &#160;Declarations</text>
<polygon fill="#8dd3c7" stroke="transparent" points="548.5,-10 548.5,-30 568.5,-30 568.5,-10 548.5,-10"/>
<text text-anchor="start" x="572.23" y="-15.4" font-family="sans-serif" font-size="14.00"> &#160;Module</text>
<polygon fill="#80b1d3" stroke="transparent" points="634.5,-10 634.5,-30 654.5,-30 654.5,-10 634.5,-10"/>
<text text-anchor="start" x="658.28" y="-15.4" font-family="sans-serif" font-size="14.00"> &#160;Bootstrap</text>
<polygon fill="#fdb462" stroke="transparent" points="731.5,-10 731.5,-30 751.5,-30 751.5,-10 731.5,-10"/>
<text text-anchor="start" x="755.17" y="-15.4" font-family="sans-serif" font-size="14.00"> &#160;Providers</text>
<polygon fill="#fb8072" stroke="transparent" points="827.5,-10 827.5,-30 847.5,-30 847.5,-10 827.5,-10"/>
<text text-anchor="start" x="851.23" y="-15.4" font-family="sans-serif" font-size="14.00"> &#160;Exports</text>
<g id="clust1" class="cluster">
<title>cluster_AppModule</title>
<polygon fill="none" stroke="black" stroke-dasharray="1,5" points="8,-70 8,-268 1331,-268 1331,-70 8,-70"/>
</g>
<g id="clust2" class="cluster">
<title>cluster_AppModule_declarations</title>
<polygon fill="none" stroke="black" points="168,-78 168,-130 1323,-130 1323,-78 168,-78"/>
</g>
<g id="clust12" class="cluster">
<title>cluster_AppModule_imports</title>
<polygon fill="none" stroke="black" points="16,-78 16,-130 160,-130 160,-78 16,-78"/>
</g>
<g id="clust14" class="cluster">
<title>cluster_AppModule_bootstrap</title>
<polygon fill="none" stroke="black" points="650,-208 650,-260 774,-260 774,-208 650,-208"/>
</g>
<!-- AppComponent -->
<g id="node1" class="node">
<title>AppComponent</title>
<polygon fill="#ffffb3" stroke="black" points="1314.94,-122 1209.06,-122 1209.06,-86 1314.94,-86 1314.94,-122"/>
<text text-anchor="middle" x="1262" y="-99.8" font-family="Times,serif" font-size="14.00">AppComponent</text>
</g>
<!-- AppModule -->
<g id="node10" class="node">
<title>AppModule</title>
<polygon fill="#8dd3c7" stroke="black" points="753.66,-187 750.66,-191 729.66,-191 726.66,-187 670.34,-187 670.34,-151 753.66,-151 753.66,-187"/>
<text text-anchor="middle" x="712" y="-164.8" font-family="Times,serif" font-size="14.00">AppModule</text>
</g>
<!-- AppComponent&#45;&gt;AppModule -->
<g id="edge1" class="edge">
<title>AppComponent&#45;&gt;AppModule</title>
<path fill="none" stroke="black" d="M1262,-122.01C1262,-144.49 1262,-180 1262,-180 1262,-180 763.79,-180 763.79,-180"/>
<polygon fill="black" stroke="black" points="763.79,-176.5 753.79,-180 763.79,-183.5 763.79,-176.5"/>
</g>
<!-- DetalleComponent -->
<g id="node2" class="node">
<title>DetalleComponent</title>
<polygon fill="#ffffb3" stroke="black" points="1190.75,-122 1069.25,-122 1069.25,-86 1190.75,-86 1190.75,-122"/>
<text text-anchor="middle" x="1130" y="-99.8" font-family="Times,serif" font-size="14.00">DetalleComponent</text>
</g>
<!-- DetalleComponent&#45;&gt;AppModule -->
<g id="edge2" class="edge">
<title>DetalleComponent&#45;&gt;AppModule</title>
<path fill="none" stroke="black" d="M1130,-122.13C1130,-142.57 1130,-173 1130,-173 1130,-173 763.99,-173 763.99,-173"/>
<polygon fill="black" stroke="black" points="763.99,-169.5 753.99,-173 763.99,-176.5 763.99,-169.5"/>
</g>
<!-- FilterPipe -->
<g id="node3" class="node">
<title>FilterPipe</title>
<polygon fill="#ffffb3" stroke="black" points="1051.72,-122 980.28,-122 980.28,-86 1051.72,-86 1051.72,-122"/>
<text text-anchor="middle" x="1016" y="-99.8" font-family="Times,serif" font-size="14.00">FilterPipe</text>
</g>
<!-- FilterPipe&#45;&gt;AppModule -->
<g id="edge3" class="edge">
<title>FilterPipe&#45;&gt;AppModule</title>
<path fill="none" stroke="black" d="M1016,-122.27C1016,-140.56 1016,-166 1016,-166 1016,-166 763.95,-166 763.95,-166"/>
<polygon fill="black" stroke="black" points="763.95,-162.5 753.95,-166 763.95,-169.5 763.95,-162.5"/>
</g>
<!-- IndexComponent -->
<g id="node4" class="node">
<title>IndexComponent</title>
<polygon fill="#ffffb3" stroke="black" points="962.71,-122 849.29,-122 849.29,-86 962.71,-86 962.71,-122"/>
<text text-anchor="middle" x="906" y="-99.8" font-family="Times,serif" font-size="14.00">IndexComponent</text>
</g>
<!-- IndexComponent&#45;&gt;AppModule -->
<g id="edge4" class="edge">
<title>IndexComponent&#45;&gt;AppModule</title>
<path fill="none" stroke="black" d="M906,-122.01C906,-138.05 906,-159 906,-159 906,-159 764.1,-159 764.1,-159"/>
<polygon fill="black" stroke="black" points="764.1,-155.5 754.1,-159 764.1,-162.5 764.1,-155.5"/>
</g>
<!-- ListaComponent -->
<g id="node5" class="node">
<title>ListaComponent</title>
<polygon fill="#ffffb3" stroke="black" points="831.83,-122 722.17,-122 722.17,-86 831.83,-86 831.83,-122"/>
<text text-anchor="middle" x="777" y="-99.8" font-family="Times,serif" font-size="14.00">ListaComponent</text>
</g>
<!-- ListaComponent&#45;&gt;AppModule -->
<g id="edge5" class="edge">
<title>ListaComponent&#45;&gt;AppModule</title>
<path fill="none" stroke="black" d="M738.08,-122.11C738.08,-122.11 738.08,-140.99 738.08,-140.99"/>
<polygon fill="black" stroke="black" points="734.58,-140.99 738.08,-150.99 741.58,-140.99 734.58,-140.99"/>
</g>
<!-- LoginComponent -->
<g id="node6" class="node">
<title>LoginComponent</title>
<polygon fill="#ffffb3" stroke="black" points="704.28,-122 589.72,-122 589.72,-86 704.28,-86 704.28,-122"/>
<text text-anchor="middle" x="647" y="-99.8" font-family="Times,serif" font-size="14.00">LoginComponent</text>
</g>
<!-- LoginComponent&#45;&gt;AppModule -->
<g id="edge6" class="edge">
<title>LoginComponent&#45;&gt;AppModule</title>
<path fill="none" stroke="black" d="M687.28,-122.11C687.28,-122.11 687.28,-140.99 687.28,-140.99"/>
<polygon fill="black" stroke="black" points="683.78,-140.99 687.28,-150.99 690.78,-140.99 683.78,-140.99"/>
</g>
<!-- MenuComponent -->
<g id="node7" class="node">
<title>MenuComponent</title>
<polygon fill="#ffffb3" stroke="black" points="571.99,-122 458.01,-122 458.01,-86 571.99,-86 571.99,-122"/>
<text text-anchor="middle" x="515" y="-99.8" font-family="Times,serif" font-size="14.00">MenuComponent</text>
</g>
<!-- MenuComponent&#45;&gt;AppModule -->
<g id="edge7" class="edge">
<title>MenuComponent&#45;&gt;AppModule</title>
<path fill="none" stroke="black" d="M515,-122.01C515,-138.05 515,-159 515,-159 515,-159 660.22,-159 660.22,-159"/>
<polygon fill="black" stroke="black" points="660.22,-162.5 670.22,-159 660.22,-155.5 660.22,-162.5"/>
</g>
<!-- NuevaComponent -->
<g id="node8" class="node">
<title>NuevaComponent</title>
<polygon fill="#ffffb3" stroke="black" points="439.87,-122 322.13,-122 322.13,-86 439.87,-86 439.87,-122"/>
<text text-anchor="middle" x="381" y="-99.8" font-family="Times,serif" font-size="14.00">NuevaComponent</text>
</g>
<!-- NuevaComponent&#45;&gt;AppModule -->
<g id="edge8" class="edge">
<title>NuevaComponent&#45;&gt;AppModule</title>
<path fill="none" stroke="black" d="M381,-122.27C381,-140.56 381,-166 381,-166 381,-166 660.08,-166 660.08,-166"/>
<polygon fill="black" stroke="black" points="660.08,-169.5 670.08,-166 660.08,-162.5 660.08,-169.5"/>
</g>
<!-- RegistroComponent -->
<g id="node9" class="node">
<title>RegistroComponent</title>
<polygon fill="#ffffb3" stroke="black" points="304.27,-122 175.73,-122 175.73,-86 304.27,-86 304.27,-122"/>
<text text-anchor="middle" x="240" y="-99.8" font-family="Times,serif" font-size="14.00">RegistroComponent</text>
</g>
<!-- RegistroComponent&#45;&gt;AppModule -->
<g id="edge9" class="edge">
<title>RegistroComponent&#45;&gt;AppModule</title>
<path fill="none" stroke="black" d="M240,-122.13C240,-142.57 240,-173 240,-173 240,-173 660.11,-173 660.11,-173"/>
<polygon fill="black" stroke="black" points="660.11,-176.5 670.11,-173 660.11,-169.5 660.11,-176.5"/>
</g>
<!-- AppComponent  -->
<g id="node12" class="node">
<title>AppComponent </title>
<polygon fill="#80b1d3" stroke="black" points="766.44,-252 657.56,-252 657.56,-216 766.44,-216 766.44,-252"/>
<text text-anchor="middle" x="712" y="-229.8" font-family="Times,serif" font-size="14.00">AppComponent </text>
</g>
<!-- AppModule&#45;&gt;AppComponent  -->
<g id="edge11" class="edge">
<title>AppModule&#45;&gt;AppComponent </title>
<path fill="none" stroke="black" stroke-dasharray="1,5" d="M712,-187.11C712,-187.11 712,-205.99 712,-205.99"/>
<polygon fill="black" stroke="black" points="708.5,-205.99 712,-215.99 715.5,-205.99 708.5,-205.99"/>
</g>
<!-- AppRoutingModule -->
<g id="node11" class="node">
<title>AppRoutingModule</title>
<polygon fill="#8dd3c7" stroke="black" points="152.27,-122 149.27,-126 128.27,-126 125.27,-122 23.73,-122 23.73,-86 152.27,-86 152.27,-122"/>
<text text-anchor="middle" x="88" y="-99.8" font-family="Times,serif" font-size="14.00">AppRoutingModule</text>
</g>
<!-- AppRoutingModule&#45;&gt;AppModule -->
<g id="edge10" class="edge">
<title>AppRoutingModule&#45;&gt;AppModule</title>
<path fill="none" stroke="black" d="M88,-122.01C88,-144.49 88,-180 88,-180 88,-180 660.09,-180 660.09,-180"/>
<polygon fill="black" stroke="black" points="660.09,-183.5 670.09,-180 660.09,-176.5 660.09,-183.5"/>
</g>
</g>
</svg>
